<svg xmlns="http://www.w3.org/2000/svg" version="1.1" xmlns:xlink="http://www.w3.org/1999/xlink" xmlns:svgjs="http://svgjs.dev/svgjs" viewBox="0 0 800 800"><g transform="matrix(0.9510565162951535,-0.3090169943749474,0.3090169943749474,0.9510565162951535,242.97059573195963,127.18419123191757)"><path d="M301.05705552336894 57.40957857243217C317.7293684497856 47.785547904500646 338.2706925853706 47.785547904500646 354.9430055117873 57.4122728699316L651.0570778881431 228.37353210068665C667.7293908145598 237.99756276861814 678.0000528823523 255.78800915729448 678.0000528823523 275.03876479065696V616.961283252167C678.0000528823523 636.2120388855295 667.7293908145598 654.0024852742059 651.0570778881431 663.6292102396368L354.9430055117873 834.5904694703918C338.2706925853706 844.2145001383233 317.7293684497856 844.2145001383233 301.05705552336894 834.5877751728924L4.942983147013081 663.6265159421373C-11.729329779403486 654.0024852742059 -21.999991847196043 636.2120388855295 -21.999991847196043 616.961283252167V275.03876479065696C-21.999991847196043 255.78800915729448 -11.729329779403486 237.99756276861814 4.942983147013081 228.37083780318727L301.05705552336894 57.40957857243217Z " stroke-width="0.5" stroke="#574700" fill="none" opacity="0.01" transform="matrix(-0.36438616603880425,0.5351270842314697,-1.1214653043920368,-0.8563823503206791,514.7905925407545,605.9881383386885)"></path><path d="M302.8049752375885 60.93058946436105C319.28674744484607 51.41654771834874 339.5933135903102 51.41654771834874 356.07508579756774 60.933252969889054L648.8049973467653 229.94066923800693C665.2867695540228 239.4547109840192 675.4400526267548 257.04183798539634 675.4400526267548 276.07258498294897V614.0874175191846C675.4400526267548 633.1181645167374 665.2867695540228 650.7052915181146 648.8049973467653 660.2219967696547L356.07508579756774 829.2294130377725C339.5933135903102 838.7434547837847 319.28674744484607 838.7434547837847 302.8049752375885 829.2267495322444L10.07506368839097 660.2193332641268C-6.406708518866537 650.7052915181146 -16.55999159159859 633.1181645167374 -16.55999159159859 614.0874175191846V276.07258498294897C-16.55999159159859 257.04183798539634 -6.406708518866537 239.4547109840192 10.07506368839097 229.93800573247898L302.8049752375885 60.93058946436105Z " stroke-width="0.81" stroke="#564924" fill="none" opacity="0.0298" transform="matrix(-0.312458407606186,0.5679510836281046,-1.134373094614912,-0.8369709407958432,505.4727476991144,597.5499975073157)"></path><path d="M304.55289495180807 64.45160035628999C320.8441264399065 55.047547532196916 340.9159345952497 55.047547532196916 357.20716608334817 64.45423306984657L646.5529168053874 231.50780637532722C662.8441482934859 240.9118591994203 672.8800523711575 258.29566681349826 672.8800523711575 277.10640517524104V611.2135517862023C672.8800523711575 630.0242901479453 662.8441482934859 647.4080977620231 646.5529168053874 656.8147832996729L357.20716608334817 823.8683566051534C340.9159345952497 833.2724094292464 320.8441264399065 833.2724094292464 304.55289495180807 823.8657238915969L15.207144229768858 656.8121505861163C-1.084087258329646 647.4080977620231 -11.119991336001192 630.0242901479453 -11.119991336001192 611.2135517862023V277.10640517524104C-11.119991336001192 258.29566681349826 -1.084087258329646 240.9118591994203 15.207144229768858 231.5051736617707L304.55289495180807 64.45160035628999Z " stroke-width="1.12" stroke="#554c33" fill="none" opacity="0.0496" transform="matrix(-0.260116815305806,0.6001491771934397,-1.1449084386261603,-0.8164066574819627,495.4833761645833,588.6275437526224)"></path><path d="M306.3008146660275 67.97267228337512C322.4015054349671 58.67860838120126 342.23855560018916 58.67860838120126 358.3392463691287 67.97527420496027L644.3008362640094 233.07500454780376C660.4015270329489 242.3690684499776 670.32005211556 259.5495566767564 670.32005211556 278.1402864026894V608.3397470883763C670.32005211556 626.9304768143091 660.4015270329489 644.1109650410881 644.3008362640094 653.4076308648471L358.3392463691287 818.5073612076905C342.23855560018916 827.8014251098643 322.4015054349671 827.8014251098643 306.3008146660275 818.5047592861054L20.339224771146746 653.405028943262C4.238534002207302 644.1109650410881 -5.679991080403795 626.9304768143091 -5.679991080403795 608.3397470883763V278.1402864026894C-5.679991080403795 259.5495566767564 4.238534002207302 242.3690684499776 20.339224771146746 233.07240262621866L306.3008146660275 67.97267228337512Z " stroke-width="1.43" stroke="#544e3e" fill="none" opacity="0.06939999999999999" transform="matrix(-0.20746830872265204,0.6316855892726663,-1.1530603815390412,-0.7947068702690705,484.8520494724125,579.2085796537474)"></path><path d="M308.0487343802472 71.493683175304C323.9588844300275 62.30960819504935 343.5611766051287 62.30960819504935 359.47132665490903 71.49625430491773L642.0487557226317 234.64214168512405C657.958905772412 243.82621666537864 667.7600518599626 260.80338550485834 667.7600518599626 279.1741065949814V605.465881355394C667.7600518599626 623.836602445517 657.958905772412 640.8137712849966 642.0487557226317 650.000417394865L359.47132665490903 813.1463047750713C343.5611766051287 822.3303797553258 323.9588844300275 822.3303797553258 308.0487343802472 813.1437336454576L25.471305312524635 649.9978462652514C9.56115526274425 640.8137712849966 -0.23999082480634115 623.836602445517 -0.23999082480634115 605.465881355394V279.1741065949814C-0.23999082480634115 260.80338550485834 9.56115526274425 243.82621666537864 25.471305312524635 234.63957055551037L308.0487343802472 71.493683175304Z " stroke-width="1.74" stroke="#535048" fill="none" opacity="0.08919999999999999" transform="matrix(-0.15461996299951203,0.6625249629200523,-1.1588227219892762,-0.7718898846599302,473.6090669641776,569.2816034006199)"></path><path d="M309.79665409446665 75.014724584811C325.51626342508797 65.9406385264756 344.88379761006826 65.9406385264756 360.6034069406896 75.01726492245331L639.7966751812537 236.2093093400224C655.516284511875 245.2833953983578 665.2000516043652 262.05724485053827 665.2000516043652 280.20795730485156V602.5920461399895C665.2000516043652 620.7427585943028 655.516284511875 637.5166080464833 639.7966751812537 646.593234442461L360.6034069406896 807.7852788600301C344.88379761006826 816.8593649183655 325.51626342508797 816.8593649183655 309.79665409446665 807.7827385223878L30.603385853902523 646.5906941048188C14.883776523281142 637.5166080464833 5.200009430791056 620.7427585943028 5.200009430791056 602.5920461399895V280.20795730485156C5.200009430791056 262.05724485053827 14.883776523281142 245.2833953983578 30.603385853902523 236.2067690023801L309.79665409446665 75.014724584811Z " stroke-width="2.05" stroke="#535251" fill="none" opacity="0.10899999999999999" transform="matrix(-0.10167880024852577,0.6926323803453127,-1.1621940049226736,-0.747974930863878,461.78550453714587,558.8359378695567)"></path><path d="M311.5445738086862 78.53576599431807C327.07364242014853 69.57166885790187 346.2064186150077 69.57166885790187 361.73548722647 78.53827553998894L637.5445946398759 237.7764769949208C653.0736632513382 246.74057413133698 662.6400513487678 263.31110419621837 662.6400513487678 281.24180801472176V599.7182109245854C662.6400513487678 617.6489147430889 653.0736632513382 634.2194448079703 637.5445946398759 643.1860514900573L361.73548722647 802.4242529449891C346.2064186150077 811.3883500814053 327.07364242014853 811.3883500814053 311.5445738086862 802.4217433993183L35.73546639528041 643.1835419443863C20.20639778381809 634.2194448079703 10.640009686388453 617.6489147430889 10.640009686388453 599.7182109245854V281.24180801472176C10.640009686388453 263.31110419621837 20.20639778381809 246.74057413133698 35.73546639528041 237.77396744925L311.5445738086862 78.53576599431807Z " stroke-width="2.36" stroke="#525458" fill="none" opacity="0.1288" transform="matrix(-0.04875158185944983,0.7219733829469556,-1.1631775053399356,-0.7229821523762957,449.41303327562554,547.8617904881495)"></path><path d="M313.2924935229058 82.05677688624695C328.63102141520886 73.20266867174996 347.52903961994735 73.20266867174996 362.86756751225045 82.05925563994646L635.292514098498 239.34361413224104C650.6310419908011 248.1977223467381 660.0800510931704 264.5649330243203 660.0800510931704 282.27562820701377V596.844345191603C660.0800510931704 614.5550403742966 650.6310419908011 630.9222510518789 635.292514098498 639.7788380200752L362.86756751225045 797.0631965123698C347.52903961994735 805.9173047268669 328.63102141520886 805.9173047268669 313.2924935229058 797.0607177586703L40.8675469366583 639.7763592663757C25.52901904435504 630.9222510518789 16.080009941985907 614.5550403742966 16.080009941985907 596.844345191603V282.27562820701377C16.080009941985907 264.5649330243203 25.52901904435504 248.1977223467381 40.8675469366583 239.34113537854165L313.2924935229058 82.05677688624695Z " stroke-width="2.67" stroke="#51565f" fill="none" opacity="0.1486" transform="matrix(0.0040553979075167446,0.7505139909093392,-1.1617812030609826,-0.6969325940570252,436.5238260609312,536.3503194898414)"></path><path d="M315.0404132371252 85.57781829575396C330.1884004102694 76.8336990031762 348.8516606248868 76.8336990031762 363.999647798031 85.58026625748204L633.04043355712 240.91078178713946C648.1884207302643 249.6549010797172 657.5200508375729 265.81879237000027 657.5200508375729 283.3094789168839V593.9705099761989C657.5200508375729 611.4611965230825 648.1884207302643 627.6250878133656 633.04043355712 636.3716550676712L363.999647798031 791.7021705973287C348.8516606248868 800.4462898899066 330.1884004102694 800.4462898899066 315.0404132371252 791.6997226356008L45.99962747803613 636.3692071059432C30.851640304891987 627.6250878133656 21.520010197583304 611.4611965230825 21.520010197583304 593.9705099761989V283.3094789168839C21.520010197583304 265.81879237000027 30.851640304891987 249.6549010797172 45.99962747803613 240.9083338254115L315.0404132371252 85.57781829575396Z " stroke-width="2.98" stroke="#505866" fill="none" opacity="0.1684" transform="matrix(0.056636516660091396,0.778220722340058,-1.1580177485876182,-0.669848189721827,423.15060150663055,524.2937874883195)"></path><path d="M316.7883329513448 89.09885970526102C331.74577940533 80.46472933460248 350.1742816298262 80.46472933460248 365.1317280838114 89.10127687501767L630.7883530157421 242.47794944203793C645.7457994697272 251.1120798126965 654.9600505819756 267.0726517156803 654.9600505819756 284.34332962675416V591.0966747607946C654.9600505819756 608.3673526718685 645.7457994697272 624.3279245748524 630.7883530157421 632.9644721152674L365.1317280838114 786.3411446822877C350.1742816298262 794.9752750529464 331.74577940533 794.9752750529464 316.7883329513448 786.3387275125311L51.13170801941402 632.9620549455109C36.17426156542888 624.3279245748524 26.9600104531807 608.3673526718685 26.9600104531807 591.0966747607946V284.34332962675416C26.9600104531807 267.0726517156803 36.17426156542888 251.1120798126965 51.13170801941402 242.47553227228138L316.7883329513448 89.09885970526102Z " stroke-width="3.29" stroke="#4f5a6c" fill="none" opacity="0.18819999999999998" transform="matrix(0.10888702656352006,0.8050606119241626,-1.1519044201596516,-0.6417517492617624,409.3264395251275,511.6855732877949)"></path><path d="M318.53625266556435 92.61990111476803C333.30315840039043 84.0957596660287 351.4969026347658 84.0957596660287 366.26380836959186 92.62228749255326L628.5362724743643 244.04511709693628C643.3031782091904 252.5692585456756 652.4000503263782 268.32651106136035 652.4000503263782 285.37718033662435V588.2228395453903C652.4000503263782 605.2735088206543 643.3031782091904 621.0307613363391 628.5362724743643 629.5572891628635L366.26380836959186 780.9801187672465C351.4969026347658 789.504260215986 333.30315840039043 789.504260215986 318.53625266556435 780.9777323894614L56.26378856079191 629.5549027850784C41.49688282596583 621.0307613363391 32.400010708778154 605.2735088206543 32.400010708778154 588.2228395453903V285.37718033662435C32.400010708778154 268.32651106136035 41.49688282596583 252.5692585456756 56.26378856079191 244.04273071915117L318.53625266556435 92.61990111476803Z " stroke-width="3.6" stroke="#4e5c72" fill="none" opacity="0.208" transform="matrix(0.16070325460649748,0.8310012290715649,-1.1434630721156729,-0.6126669453062001,395.0847015524088,498.52029805312566)"></path><path d="M320.2841723797838 96.14091200669691C334.8605373954509 87.72675947987682 352.8195236397053 87.72675947987682 367.3958886553724 96.14326759251071L626.2841919329865 245.61225423425657C640.8605569486535 254.02640676107671 649.8400500707805 269.58033988946227 649.8400500707805 286.41100052891636V585.348973812408C649.8400500707805 602.1796344518621 640.8605569486535 617.7335675802476 626.2841919329865 626.1500756928815L367.3958886553724 775.6190623346273C352.8195236397053 784.0332148614475 334.8605373954509 784.0332148614475 320.2841723797838 775.6167067488136L61.3958691021698 626.1477201070678C46.819504086502775 617.7335675802476 37.84001096437555 602.1796344518621 37.84001096437555 585.348973812408V286.41100052891636C37.84001096437555 269.58033988946227 46.819504086502775 254.02640676107671 61.3958691021698 245.60989864844282L320.2841723797838 96.14091200669691Z " stroke-width="3.91" stroke="#4d5e78" fill="none" opacity="0.2278" transform="matrix(0.21198280007410458,0.85601069553379,-1.1327200746855057,-0.5826182994459885,380.45903797284933,484.7938805416802)"></path><path d="M322.03209209400336 99.66195341620391C336.41791639051144 91.35778981130304 354.14214464464476 91.35778981130304 368.52796894115284 99.66427821004629L624.0321113916085 247.17942188915498C638.4179356881166 255.48358549405583 647.2800498151832 270.83419923514225 647.2800498151832 287.4448512387865V582.4751385970037C647.2800498151832 599.0857906006479 638.4179356881166 614.4364043417345 624.0321113916085 622.7428927404776L368.52796894115284 770.2580364195862C354.14214464464476 778.5622000244871 336.41791639051144 778.5622000244871 322.03209209400336 770.255711625744L66.52794964354769 622.7405679466353C52.142125347039666 614.4364043417345 43.28001121997295 599.0857906006479 43.28001121997295 582.4751385970037V287.4448512387865C43.28001121997295 270.83419923514225 52.142125347039666 255.48358549405583 66.52794964354769 247.17709709531266L322.03209209400336 99.66195341620391Z " stroke-width="4.22" stroke="#4c607d" fill="none" opacity="0.2476" transform="matrix(0.2626247288648334,0.8800577024660476,-1.1197062453569104,-0.5516311680341677,365.4832689632369,470.5036349562766)"></path><path d="M323.780011808223 103.18299482571098C337.97529538557194 94.98882014272931 355.46476564958436 94.98882014272931 369.6600492269333 103.18528882758193L621.7800308502307 248.7465895440534C635.9753144275796 256.94076422703506 644.7200495595858 272.0880585808223 644.7200495595858 288.4787019486567V579.6013033815996C644.7200495595858 595.991946749434 635.9753144275796 611.1392411032211 621.7800308502307 619.3357097880737L369.6600492269333 764.8970105045453C355.46476564958436 773.0911851875269 337.97529538557194 773.0911851875269 323.780011808223 764.8947165026743L71.66003018492563 619.333415786203C57.46474660757667 611.1392411032211 48.72001147557046 595.991946749434 48.72001147557046 579.6013033815996V288.4787019486567C48.72001147557046 272.0880585808223 57.46474660757667 256.94076422703506 71.66003018492563 248.7442955421825L323.780011808223 103.18299482571098Z " stroke-width="4.53" stroke="#4b6182" fill="none" opacity="0.26739999999999997" transform="matrix(0.31252976429572654,0.9031115269103396,-1.1044567719743612,-0.5197317275824958,350.19130224157743,455.6483337494784)"></path><path d="M325.52793152244243 106.70403623521798C339.5326743806324 98.61985047415556 356.7873866545239 98.61985047415556 370.79212951271387 106.70629944511751L619.5279503088527 250.31375719895175C633.5326931670427 258.39794296001423 642.1600493039884 273.34191792650233 642.1600493039884 289.51255265852683V576.7274681661953C642.1600493039884 592.8981028982199 633.5326931670427 607.8420778647079 619.5279503088527 615.9285268356699L370.79212951271387 759.5359845895041C356.7873866545239 767.6201703505666 339.5326743806324 767.6201703505666 325.52793152244243 759.5337213796047L76.79211072630352 615.9262636257704C62.78736786811362 607.8420778647079 54.160011731167856 592.8981028982199 54.160011731167856 576.7274681661953V289.51255265852683C54.160011731167856 273.34191792650233 62.78736786811362 258.39794296001423 76.79211072630352 250.31149398905234L325.52793152244243 106.70403623521798Z " stroke-width="4.84" stroke="#4a6387" fill="none" opacity="0.2872" transform="matrix(0.361600474047283,0.9251420476750358,-1.0870111277426318,-0.4869469597729618,334.6170753674887,440.2282588787574)"></path><path d="M327.275851236662 110.22507764472499C341.09005337569295 102.25088080558177 358.11000765946335 102.25088080558177 371.9242097984943 110.22731006265315L617.2758697674749 251.88092485385022C631.0900719065057 259.8551216929934 639.600049048391 274.5957772721824 639.600049048391 290.546403368397V573.853632950791C639.600049048391 589.8042590470059 631.0900719065057 604.5449146261947 617.2758697674749 612.5213438832659L371.9242097984943 754.1749586744631C358.11000765946335 762.1491555136063 341.09005337569295 762.1491555136063 327.275851236662 754.172726256535L81.92419126768141 612.519111465338C68.10998912865051 604.5449146261947 59.60001198676525 589.8042590470059 59.60001198676525 573.853632950791V290.546403368397C59.60001198676525 274.5957772721824 68.10998912865051 259.8551216929934 81.92419126768141 251.87869243592212L327.275851236662 110.22507764472499Z " stroke-width="5.15" stroke="#49658c" fill="none" opacity="0.307" transform="matrix(0.4097414529080399,0.9461197605860434,-1.0674129783224846,-0.4533046361043899,318.79448423154355,424.24528573598843)"></path><path d="M329.02377095088156 113.74608853665393C342.6474323707534 105.88188061942986 359.4326286644029 105.88188061942986 373.05629008427474 113.7482901626106L615.023789226097 253.44806199117045C628.6474506459688 261.31226990839446 637.0400487927936 275.8496061002843 637.0400487927936 291.5802235606891V570.9797672178088C637.0400487927936 586.7103846782136 628.6474506459688 601.2477208701033 615.023789226097 609.114130413284L373.05629008427474 748.8139022418438C359.4326286644029 756.6781101590678 342.6474323707534 756.6781101590678 329.02377095088156 748.8117006158872L87.0562718090593 609.1119287873273C73.43261038918746 601.2477208701033 65.0400122423627 586.7103846782136 65.0400122423627 570.9797672178088V291.5802235606891C65.0400122423627 275.8496061002843 73.43261038918746 261.31226990839446 87.0562718090593 253.44586036521383L329.02377095088156 113.74608853665393Z " stroke-width="5.46" stroke="#486790" fill="none" opacity="0.3268" transform="matrix(0.4568595009875488,0.966015793084302,-1.0457100812199343,-0.41883330219522985,302.7573382226677,407.70296227760616)"></path><path d="M330.771690665101 117.26712994616099C344.20481136581384 109.51291095085617 360.75524966934245 109.51291095085617 374.1883703700553 117.26930078014624L612.7717086847191 255.01522964606886C626.2048293854318 262.7694486413737 634.4800485371962 277.10346544596433 634.4800485371962 292.6140742705593V568.1059320024046C634.4800485371962 583.6165408269995 626.2048293854318 597.9505576315902 612.7717086847191 605.7069474608802L374.1883703700553 743.4528763268029C360.75524966934245 751.2070953221076 344.20481136581384 751.2070953221076 330.771690665101 743.4507054928176L92.18835235043719 605.704776626895C78.75523164972441 597.9505576315902 70.4800124979601 583.6165408269995 70.4800124979601 568.1059320024046V292.6140742705593C70.4800124979601 277.10346544596433 78.75523164972441 262.7694486413737 92.18835235043719 255.01305881208373L330.771690665101 117.26712994616099Z " stroke-width="5.77" stroke="#476895" fill="none" opacity="0.34659999999999996" transform="matrix(0.5028637970759391,0.9848019181439389,-1.0219541776843133,-0.38356226176461317,286.5392631578411,390.6065693168555)"></path><path d="M332.5196103793207 120.788171355668C345.7621903608744 113.14394128228238 362.0778706742819 113.14394128228238 375.3204506558356 120.79031139768182L610.5196281433414 256.5823973009672C623.7622081248951 264.22662737435286 631.9200482815988 278.3573247916443 631.9200482815988 293.6479249804294V565.2320967870003C631.9200482815988 580.5226969757855 623.7622081248951 594.6533943930767 610.5196281433414 602.2997645084763L375.3204506558356 738.0918504117617C362.0778706742819 745.7360804851471 345.7621903608744 745.7360804851471 332.5196103793207 738.0897103697478L97.32043289181507 602.2976244664624C84.0778529102613 594.6533943930767 75.9200127535575 580.5226969757855 75.9200127535575 565.2320967870003V293.6479249804294C75.9200127535575 278.3573247916443 84.0778529102613 264.22662737435286 97.32043289181507 256.5802572589535L332.5196103793207 120.788171355668Z " stroke-width="6.08" stroke="#466a99" fill="none" opacity="0.36639999999999995" transform="matrix(0.5476660668382223,1.0024505674849178,-0.9962008773437074,-0.3475215603148273,270.1736615279443,372.9631440826213)"></path><path d="M334.26753009354013 124.309212765175C347.31956935593473 116.7749716137086 363.40049167922155 116.7749716137086 376.45253094161615 124.3113220152174L608.2675476019633 258.1495649558656C621.319586864358 265.68380610733203 629.3600480260013 279.61118413732436 629.3600480260013 294.68177569029956V562.3582615715961C629.3600480260013 577.4288531245712 621.319586864358 591.3562311545636 608.2675476019633 598.8925815560723L376.45253094161615 732.7308244967205C363.40049167922155 740.2650656481869 347.31956935593473 740.2650656481869 334.26753009354013 732.7287152466782L102.45251343319296 598.8904723060299C89.40047417079825 591.3562311545636 81.36001300915495 577.4288531245712 81.36001300915495 562.3582615715961V294.68177569029956C81.36001300915495 279.61118413732436 89.40047417079825 265.68380610733203 102.45251343319296 258.1474557058233L334.26753009354013 124.309212765175Z " stroke-width="6.39" stroke="#456c9d" fill="none" opacity="0.3862" transform="matrix(0.5911807455420633,1.0189348440534862,-0.9685095358192038,-0.3107419685394527,253.6936439563765,354.7815152764773)"></path><path d="M336.0154498077597 127.83022365710394C348.8769483509953 120.40597142755678 364.723112684161 120.40597142755678 377.5846112273966 127.83230211517491L606.0154670605855 259.716702093186C618.8769656038212 267.14095432273314 626.800047770404 280.8650129654263 626.800047770404 295.71559588259163V559.4843958386138C626.800047770404 574.3349787557792 618.8769656038212 588.0590373984722 606.0154670605855 595.4853680860903L377.5846112273966 727.3697680641013C364.723112684161 734.7940202936485 348.8769483509953 734.7940202936485 336.0154498077597 727.3676896060305L107.58459397457085 595.4832896280194C94.7230954313352 588.0590373984722 86.80001326475235 574.3349787557792 86.80001326475235 559.4843958386138V295.71559588259163C86.80001326475235 280.8650129654263 94.7230954313352 267.14095432273314 107.58459397457085 259.714623635115L336.0154498077597 127.83022365710394Z " stroke-width="6.7" stroke="#436da1" fill="none" opacity="0.40599999999999997" transform="matrix(0.6333251350288147,1.034228533743108,-0.9389431255717815,-0.27325496548254585,237.13196026426027,336.07244454086367)"></path><path d="M337.76336952197926 131.35123454903282C350.43432734605585 124.03697124140487 366.0457336891004 124.03697124140487 378.716691513177 131.35328221513237L603.7633865192075 261.2838392305062C616.4343443432841 268.5981025381342 624.2400475148064 282.11884179352813 624.2400475148064 296.74941607488364V556.6105301056314C624.2400475148064 571.241104386987 616.4343443432841 584.7618436423809 603.7633865192075 592.0781546161083L378.716691513177 722.0087116314821C366.0457336891004 729.32297493911 350.43432734605585 729.32297493911 337.76336952197926 722.0066639653828L112.71667451594868 592.0761069500088C100.04571669187209 584.7618436423809 92.24001352034975 571.241104386987 92.24001352034975 556.6105301056314V296.74941607488364C92.24001352034975 282.11884179352813 100.04571669187209 268.5981025381342 112.71667451594868 261.2817915644067L337.76336952197926 131.35123454903282Z " stroke-width="7.01" stroke="#426fa5" fill="none" opacity="0.42579999999999996" transform="matrix(0.6740195546491883,1.0483061163278746,-0.9075681002475905,-0.23509272147548393,220.52099389799395,316.848566439871)"></path><path d="M339.5112892361987 134.87230647611796C351.9917063411163 127.66803209040921 367.3683546940401 127.66803209040921 379.84877179895756 134.87432335024607L601.5113059778298 262.85103740298274C613.9917230827473 270.0553117886915 621.680047259209 283.3727316567863 621.680047259209 297.78329730233196V553.7367254078052C621.680047259209 568.147291053351 613.9917230827473 581.4647109214458 601.5113059778298 588.6710021812826L379.84877179895756 716.6477162340192C367.3683546940401 723.8519906197279 351.9917063411163 723.8519906197279 339.5112892361987 716.6456993598912L117.84875505732657 588.6689853071546C105.36833795240904 581.4647109214458 97.6800137759472 568.147291053351 97.6800137759472 553.7367254078052V297.78329730233196C97.6800137759472 283.3727316567863 105.36833795240904 270.0553117886915 117.84875505732657 262.8490205288547L339.5112892361987 134.87230647611796Z " stroke-width="7.32" stroke="#4170a9" fill="none" opacity="0.4456" transform="matrix(0.7131874858970203,1.0611427755796186,-0.874454252798716,-0.1962880808793251,203.89262845581152,297.124500510015)"></path><path d="M341.25920895041827 138.39331736804684C353.54908533617674 131.29903190425733 368.6909756989795 131.29903190425733 380.980852084738 138.39530345020358L599.2592254364517 264.418174540303C611.5491018222102 271.5124600040925 619.1200470036117 284.6265604848882 619.1200470036117 298.81711749462403V550.8628596748229C619.1200470036117 565.0534166845587 611.5491018222102 578.1675171653544 599.2592254364517 585.2637887113005L380.980852084738 711.2866598014C368.6909756989795 718.3809452651894 353.54908533617674 718.3809452651894 341.25920895041827 711.2846737192433L122.98083559870446 585.2618026291439C110.69095921294598 578.1675171653544 103.1200140315446 565.0534166845587 103.1200140315446 550.8628596748229V298.81711749462403C103.1200140315446 284.6265604848882 110.69095921294598 271.5124600040925 122.98083559870446 264.41618845814634L341.25920895041827 138.39331736804684Z " stroke-width="7.63" stroke="#4072ad" fill="none" opacity="0.4654" transform="matrix(0.7507557104870944,1.0727144085390772,-0.8396745676673867,-0.1568745446619137,187.27826394508537,276.9168108887601)"></path><path d="M343.00711340584877 141.9143587775539C355.10644907244824 134.9300622356836 370.0135814451299 134.9300622356836 382.11291711172936 141.91631406773922L597.0071296362848 265.98534219520144C609.1064653028843 272.9696387370717 616.5600314892251 285.8804198305682 616.5600314892251 299.8509682044942V547.9890244594187C616.5600314892251 561.9595728333445 609.1064653028843 574.8703539268411 597.0071296362848 581.8566057588966L382.11291711172936 705.9256338863588C370.0135814451299 712.9099304282292 355.10644907244824 712.9099304282292 343.00711340584877 705.9236785961737L128.11290088129329 581.8546504687115C116.01356521469387 574.8703539268411 108.55999902835299 561.9595728333445 108.55999902835299 547.9890244594187V299.8509682044942C108.55999902835299 285.8804198305682 116.01356521469387 272.9696387370717 128.11290088129329 265.9833869050162L343.00711340584877 141.9143587775539Z " stroke-width="7.9399999999999995" stroke="#3f73b1" fill="none" opacity="0.48519999999999996" transform="matrix(0.7866544416359814,1.0829976339104785,-0.8033050673318364,-0.11688625284035076,170.70873651494153,256.24409439237394)"></path><path d="M344.7550331200682 145.4354001870609C356.6638280675087 138.56109256710982 371.33620245006944 138.56109256710982 383.2449973975099 145.4373246852748L594.755049094907 267.5525098500998C606.6638440423474 274.4268174700509 614.0000312336277 287.13427917624824 614.0000312336277 300.88481891436436V545.1151892440143C614.0000312336277 558.8657289821305 606.6638440423474 571.5731906883278 594.755049094907 578.4494228064927L383.2449973975099 700.5646079713177C371.33620245006944 707.4389155912689 356.6638280675087 707.4389155912689 344.7550331200682 700.5626834731039L133.24498142267117 578.4474983082789C121.33618647523076 571.5731906883278 113.99999928395039 558.8657289821305 113.99999928395039 545.1151892440143V300.88481891436436C113.99999928395039 287.13427917624824 121.33618647523076 274.4268174700509 133.24498142267117 267.550585351886L344.7550331200682 145.4354001870609Z " stroke-width="8.25" stroke="#3e75b4" fill="none" opacity="0.5049999999999999" transform="matrix(0.8208174483182066,1.091969799547833,-0.7654246535217479,-0.0763579668209739,154.21426056951438,235.12699907721958)"></path><path d="M346.5029528342878 148.9564415965679C358.22120706256914 142.19212289853607 372.658823455009 142.19212289853607 384.37707768329034 148.95833530281038L592.5029685535292 269.1196775049982C604.2212227818104 275.8839962030301 611.4400309780303 288.3881385219283 611.4400309780303 301.9186696242345V542.2413540286102C611.4400309780303 555.7718851309164 604.2212227818104 568.2760274498146 592.5029685535292 575.0422398540888L384.37707768329034 695.2035820562767C372.658823455009 701.9679007543086 358.22120706256914 701.9679007543086 346.5029528342878 695.2016883500344L138.37706196404906 575.0403461478465C126.65880773576771 568.2760274498146 119.43999953954778 555.7718851309164 119.43999953954778 542.2413540286102V301.9186696242345C119.43999953954778 288.3881385219283 126.65880773576771 275.8839962030301 138.37706196404906 269.1177837987558L346.5029528342878 148.9564415965679Z " stroke-width="8.56" stroke="#3c76b8" fill="none" opacity="0.5247999999999999" transform="matrix(0.8531821722838435,1.0996089889999934,-0.726114943420304,-0.03532505167058808,137.8244514469012,213.5881981253205)"></path><path d="M348.25087254850735 152.47745248849685C359.77858605762964 145.82312271238422 373.9814444599484 145.82312271238422 385.50915796907077 152.4793154027679L590.2508880121512 270.68681464231855C601.7786015212735 277.34114441843116 608.8800307224329 289.6419673500302 608.8800307224329 302.95248981652657V539.3674882956279C608.8800307224329 552.6780107621244 601.7786015212735 564.9788336937233 590.2508880121512 571.635026384107L385.50915796907077 689.8425256236576C373.9814444599484 696.4968553997703 359.77858605762964 696.4968553997703 348.25087254850735 689.8406627093866L143.50914250542695 571.6331634698361C131.98142899630466 564.9788336937233 124.87999979514524 552.6780107621244 124.87999979514524 539.3674882956279V302.95248981652657C124.87999979514524 289.6419673500302 131.98142899630466 277.34114441843116 143.50914250542695 270.68495172804757L348.25087254850735 152.47745248849685Z " stroke-width="8.87" stroke="#3b78bb" fill="none" opacity="0.5446" transform="matrix(0.8836898376377531,1.1058940270801856,-0.6854601011783644,0.006176541645612266,121.56818755770644,191.65242668429124)"></path><path d="M349.9987770039378 155.99849389800386C361.3359497939011 149.45415304381044 375.3040502060989 149.45415304381044 386.64122299606225 156.00032602030348L587.9987922119842 272.2539822972169C599.3359650019474 278.7983231514104 606.3200152080465 290.89582669571024 606.3200152080465 303.98634052639676V536.4936530802236C606.3200152080465 549.5841669109102 599.3359650019474 561.68167045521 587.9987922119842 568.227843431703L386.64122299606225 684.4814997086165C375.3040502060989 691.0258405628099 361.3359497939011 691.0258405628099 349.9987770039378 684.479667586317L148.64120778801578 568.2260113094035C137.3040349980525 561.68167045521 130.31998479195357 549.5841669109102 130.31998479195357 536.4936530802236V303.98634052639676C130.31998479195357 290.89582669571024 137.3040349980525 278.7983231514104 148.64120778801578 272.25215017491735L349.9987770039378 155.99849389800386Z " stroke-width="9.18" stroke="#3a79bf" fill="none" opacity="0.5644" transform="matrix(0.9122855527951486,1.1108044844241942,-0.6435466650741752,0.048110294022142175,105.47363789664502,169.34654330995403)"></path><path d="M351.7466967181573 159.51953530751086C362.8933287889615 153.08518337523668 376.62667121103846 153.08518337523668 387.7733032818427 159.52133663783906L585.7467116706064 273.8211499521153C596.8933437414105 280.2555018843895 603.760014952449 292.1496860413902 603.760014952449 305.02019123626695V533.6198178648194C603.760014952449 546.490323059696 596.8933437414105 558.3845072166969 585.7467116706064 564.820660479299L387.7733032818427 679.1204737935752C376.62667121103846 685.5548257258497 362.8933287889615 685.5548257258497 351.7466967181573 679.1186724632473L153.77328832939367 564.8188591489709C142.62665625858943 558.3845072166969 135.75998504755097 546.490323059696 135.75998504755097 533.6198178648194V305.02019123626695C135.75998504755097 292.1496860413902 142.62665625858943 280.2555018843895 153.77328832939367 273.8193486217872L351.7466967181573 159.51953530751086Z " stroke-width="9.49" stroke="#387ac2" fill="none" opacity="0.5841999999999999" transform="matrix(0.9389184046429417,1.1143206809997035,-0.6004633706592419,0.09043913592812491,89.56822929383611,146.69940998513152)"></path><path d="M353.49461643237686 163.04054619943975C364.45070778402203 156.71618318908477 377.94929221597795 156.71618318908477 388.9053835676231 163.0423167377965L583.4946311292285 275.38828708943555C594.4507224808735 281.71265009979055 601.2000146968517 293.40351486949214 601.2000146968517 306.0540114285589V530.745952131837C601.2000146968517 543.3964486909038 594.4507224808735 555.0873134606053 583.4946311292285 561.413447009317L388.9053835676231 673.759417360956C377.94929221597795 680.083780371311 364.45070778402203 680.083780371311 353.49461643237686 673.7576468225993L158.90536887077155 561.4116764709603C147.94927751912638 555.0873134606053 141.19998530314842 543.3964486909038 141.19998530314842 530.745952131837V306.0540114285589C141.19998530314842 293.40351486949214 147.94927751912638 281.71265009979055 158.90536887077155 275.38651655107884L353.49461643237686 163.04054619943975Z " stroke-width="9.8" stroke="#377cc6" fill="none" opacity="0.604" transform="matrix(0.9635415447513755,1.1164236885274041,-0.5563009702375945,0.13312546503764644,73.87856522645143,123.742027268723)"></path><path d="M355.2425361465964 166.56161812652493C366.00808677908253 160.34724403808917 379.27191322091744 160.34724403808917 390.03746385340355 166.56335787291033L581.2425505878506 276.95548526191214C592.0081012203367 283.1698593503479 598.6400144412542 294.65740473275036 598.6400144412542 307.0878926560073V527.8721474340109C598.6400144412542 540.302635357268 592.0081012203367 551.7901807396703 581.2425505878506 558.0062945744914L390.03746385340355 668.3984219634932C379.27191322091744 674.612796051929 366.00808677908253 674.612796051929 355.2425361465964 668.3966822171079L164.03744941214944 558.0045548281062C153.27189877966327 551.7901807396703 146.63998555874582 540.302635357268 146.63998555874582 527.8721474340109V307.0878926560073C146.63998555874582 294.65740473275036 153.27189877966327 283.1698593503479 164.03744941214944 276.95374551552686L355.2425361465964 166.56161812652493Z " stroke-width="10.11" stroke="#367dc9" fill="none" opacity="0.6237999999999999" transform="matrix(0.9861122674957461,1.1170953317723928,-0.5111520490316086,0.17613116373196858,58.430459916612506,100.50738974805483)"></path><path d="M356.99045586081587 170.08262901845382C367.565465774143 163.9782438519373 380.594534225857 163.9782438519373 391.1695441391841 170.0843379728678L578.9904700464726 278.5226223992324C589.5654799597996 284.62700756574895 596.0800141856566 295.91123356085217 596.0800141856566 308.1217128482993V524.9982817010286C596.0800141856566 537.2087609884757 589.5654799597996 548.4929869835789 578.9904700464726 554.5990811045092L391.1695441391841 663.037365530874C380.594534225857 669.1417506973905 367.565465774143 669.1417506973905 356.99045586081587 663.03565657646L169.16952995352733 554.5973721500955C158.59452004020022 548.4929869835789 152.07998581434322 537.2087609884757 152.07998581434322 524.9982817010286V308.1217128482993C152.07998581434322 295.91123356085217 158.59452004020022 284.62700756574895 169.16952995352733 278.5209134448185L356.99045586081587 170.08262901845382Z " stroke-width="10.42" stroke="#347fcc" fill="none" opacity="0.6436" transform="matrix(1.0065920799635522,1.11631818866206,-0.4651108383927975,0.21941761642755697,43.24885671738912,77.03057107488883)"></path><path d="M358.73837557503543 173.60367042796082C369.1228447692035 167.6092741833635 381.9171552307965 167.6092741833635 392.30162442496453 173.60534859040337L576.7383895050948 280.0897900541308C587.1228586992628 286.0841862987281 593.5200139300593 297.1650929065322 593.5200139300593 309.15556355816943V522.1244464856244C593.5200139300593 534.1149171372616 587.1228586992628 545.1958237450657 576.7383895050948 551.1918981521054L392.30162442496453 657.6763396158328C381.9171552307965 663.6707358604302 369.1228447692035 663.6707358604302 358.73837557503543 657.6746614533904L174.30161049490516 551.190219989663C163.91714130073717 545.1958237450657 157.51998606994067 534.1149171372616 157.51998606994067 522.1244464856244V309.15556355816943C157.51998606994067 297.1650929065322 163.91714130073717 286.0841862987281 174.30161049490516 280.08811189168836L358.73837557503543 173.60367042796082Z " stroke-width="10.73" stroke="#3380cf" fill="none" opacity="0.6634" transform="matrix(1.0249467635381142,1.1140755891840746,-0.4182730264205948,0.2629457266812323,28.357796227887434,53.34870273913771)"></path><path d="M360.486295289255 177.12469657867888C370.680223764264 171.24028925600072 383.239776235736 171.24028925600072 393.43370471074496 177.12634394914994L574.486308963717 281.6569424502402C584.680237438726 287.5413497729183 590.9600136744618 298.41893699342324 590.9600136744618 310.18939900925056V519.2505960114311C590.9600136744618 531.0210580272585 584.680237438726 541.8986452477634 574.486308963717 547.7846999409126L393.43370471074496 652.3152984420028C383.239776235736 658.1997057646809 370.680223764264 658.1997057646809 360.486295289255 652.3136510715317L179.43369103628305 547.7830525704414C169.23976256127406 541.8986452477634 162.95998632553807 531.0210580272585 162.95998632553807 519.2505960114311V310.18939900925056C162.95998632553807 298.41893699342324 169.23976256127406 287.5413497729183 179.43369103628305 281.65529507976913L360.486295289255 177.12469657867888Z " stroke-width="11.04" stroke="#3181d2" fill="none" opacity="0.6831999999999999" transform="matrix(1.0411464270656023,1.1103516130152047,-0.370735566356039,0.30667593402088955,13.780459430579697,29.50085944863531)"></path><path d="M362.2342150034745 180.64572272939682C372.23760275932443 174.8713043286379 384.5623972406755 174.8713043286379 394.56578499652545 180.64733930789646L572.234228422339 283.2240948463495C582.2376161781889 288.9985132471084 588.4000134188644 299.67278108031417 588.4000134188644 311.22323446033164V516.3767455372376C588.4000134188644 527.9271989172553 582.2376161781889 538.601466750461 572.234228422339 544.3775017297196L394.56578499652545 646.9542572681726C384.5623972406755 652.7286756689314 372.23760275932443 652.7286756689314 362.2342150034745 646.952640689673L184.56577157766094 544.37588515122C174.562383821811 538.601466750461 168.39998658113547 527.9271989172553 168.39998658113547 516.3767455372376V311.22323446033164C168.39998658113547 299.67278108031417 174.562383821811 288.9985132471084 184.56577157766094 283.2224782678499L362.2342150034745 180.64572272939682Z " stroke-width="11.35" stroke="#3083d5" fill="none" opacity="0.703" transform="matrix(1.0551655515284275,1.105131085828508,-0.3225964831204894,0.3505682304471243,-0.46091731776141387,5.52811807126875)"></path><path d="M363.982134717694 184.16676413890383C373.79498175438493 178.50233466006412 385.885018245615 178.50233466006412 395.69786528230594 184.16834992543204L569.9821478809611 284.79126250124784C579.794994917652 290.4556919800876 585.840013163267 300.92664042599415 585.840013163267 312.2570851702019V513.5029103218335C585.840013163267 524.8333550660411 579.794994917652 535.3043035119478 569.9821478809611 540.9703187773157L395.69786528230594 641.5932313531315C385.885018245615 647.2576608319713 373.79498175438493 647.2576608319713 363.982134717694 641.5916455666032L189.69785211903883 540.9687329907875C179.88500508234796 535.3043035119478 173.83998683673292 524.8333550660411 173.83998683673292 513.5029103218335V312.2570851702019C173.83998683673292 300.92664042599415 179.88500508234796 290.4556919800876 189.69785211903883 284.7896767147197L363.982134717694 184.16676413890383Z " stroke-width="11.66" stroke="#2e84d8" fill="none" opacity="0.7227999999999999" transform="matrix(1.066983026164069,1.0983995742228885,-0.27395467837202947,0.39458217654769867,-14.345032609665907,-18.52651649056577)"></path><path d="M365.7300544319136 187.68779028962177C375.35236074944544 182.13334973270128 387.2076392505545 182.13334973270128 396.8299455680864 187.68934528417856L567.7300673395832 286.3584148973572C577.3523736571151 291.9128554542777 583.2800129076696 302.18048451288513 583.2800129076696 313.29092062128296V510.62905984764024C583.2800129076696 521.7394959560381 577.3523736571151 532.0071250146455 567.7300673395832 537.5631205661227L396.8299455680864 636.2321901793014C387.2076392505545 641.7866307362219 375.35236074944544 641.7866307362219 365.7300544319136 636.2306351847446L194.82993266041672 537.561565571566C185.20762634288485 532.0071250146455 179.27998709233032 521.7394959560381 179.27998709233032 510.62905984764024V313.29092062128296C179.27998709233032 302.18048451288513 185.20762634288485 291.9128554542777 194.82993266041672 286.3568599028004L365.7300544319136 187.68779028962177Z " stroke-width="11.97" stroke="#2c85db" fill="none" opacity="0.7425999999999999" transform="matrix(1.076582175984623,1.0901433792150599,-0.22490973445402862,0.4386769171631112,-27.851534679272618,-42.618151363866104)"></path><path d="M367.4779741461332 191.2088469579179C376.90973974450594 185.76439532291664 388.5302602554941 185.76439532291664 397.96202585386686 191.21037116050326L565.4779867982054 287.9255978110447C574.9097523965781 293.3700494460459 580.7200126520722 303.4343591173543 580.7200126520722 314.3247865899422V507.75523989102504C580.7200126520722 518.645667363613 574.9097523965781 528.7099770349212 565.4779867982054 534.1559528725079L397.96202585386686 630.8711795230492C388.5302602554941 636.3156311580506 376.90973974450594 636.3156311580506 367.4779741461332 630.8696553204641L199.96201320179466 534.1544286699225C190.53024760342186 528.7099770349212 184.71998734792777 518.645667363613 184.71998734792777 507.75523989102504V314.3247865899422C184.71998734792777 303.4343591173543 190.53024760342186 293.3700494460459 199.96201320179466 287.92407360845937L367.4779741461332 191.2088469579179Z " stroke-width="12.28" stroke="#2b86de" fill="none" opacity="0.7624" transform="matrix(1.083950780668593,1.0803495282295825,-0.17556171761147138,0.48281119653746785,-40.96105707252127,-66.7000289089624)"></path><path d="M369.2258938603526 194.72985784984678C378.4671187395664 189.39539513676473 389.85288126043355 189.39539513676473 399.09410613964735 194.73135126046077L563.2259062568274 289.49273494836496C572.4671311360412 294.82719766144703 578.1600123964748 304.68818794545615 578.1600123964748 315.35860678223423V504.8813741580426C578.1600123964748 515.5517929948209 572.4671311360412 525.4127832788299 563.2259062568274 530.7487394025259L399.09410613964735 625.51012309043C389.85288126043355 630.8445858035121 378.4671187395664 630.8445858035121 369.2258938603526 625.5086296798162L205.0940937431725 530.7472459919119C195.85286886395875 525.4127832788299 190.15998760352517 515.5517929948209 190.15998760352517 504.8813741580426V315.35860678223423C190.15998760352517 304.68818794545615 195.85286886395875 294.82719766144703 205.0940937431725 289.4912415377511L369.2258938603526 194.72985784984678Z " stroke-width="12.59" stroke="#2988e1" fill="none" opacity="0.7821999999999999" transform="matrix(1.0890810848127126,1.0690057655177512,-0.12601098085107737,0.5269433728844597,-53.65520228660313,-90.72360649265102)"></path><path d="M370.9738135745722 198.25088400056472C380.02449773462695 193.0264102094019 391.1755022653731 193.0264102094019 400.22618642542784 198.2523466192073L560.9738257154496 291.0598873444743C570.0245098755044 296.2843611356371 575.6000121408774 305.94203203234713 575.6000121408774 316.3924422333153V502.00752368384946C575.6000121408774 512.4579338848177 570.0245098755044 522.1156047815277 560.9738257154496 527.3415411913329L400.22618642542784 620.1490819165999C391.1755022653731 625.3735557077628 380.02449773462695 625.3735557077628 370.9738135745722 620.1476192979576L210.22617428455044 527.3400785726906C201.1754901244957 522.1156047815277 195.59998785912262 512.4579338848177 195.59998785912262 502.00752368384946V316.3924422333153C195.59998785912262 305.94203203234713 201.1754901244957 296.2843611356371 210.22617428455044 291.0584247258318L370.9738135745722 198.25088400056472Z " stroke-width="12.9" stroke="#2789e4" fill="none" opacity="0.8019999999999999" transform="matrix(1.091969799547833,1.056100540930713,-0.07635796682097412,0.5710314322933896,-65.9165431783195,-114.63861403064288)"></path><path d="M372.72173328879177 201.7719406688608C381.5818767296874 196.6574557996172 392.49812327031265 196.6574557996172 401.3582667112083 201.77337249553193L558.7217451740717 292.6270702581618C567.5818886149673 297.7415551274054 573.0400118852799 307.1959066368162 573.0400118852799 317.42630820197456V499.1337037272342C573.0400118852799 509.36410529239265 567.5818886149673 518.8184568018034 558.7217451740717 523.9343734977181L401.3582667112083 614.7880712603479C392.49812327031265 619.9025561295915 381.5818767296874 619.9025561295915 372.72173328879177 614.7866394336768L215.35825482592833 523.932941671047C206.49811138503264 518.8184568018034 201.03998811472002 509.36410529239265 201.03998811472002 499.1337037272342V317.42630820197456C201.03998811472002 307.1959066368162 206.49811138503264 297.7415551274054 215.35825482592833 292.62563843149064L372.72173328879177 201.7719406688608Z " stroke-width="13.209999999999999" stroke="#258ae7" fill="none" opacity="0.8218" transform="matrix(1.0926180955391218,1.0416229969661452,-0.02670301108470652,0.6150330018948741,-77.72867699662402,-138.39307324238757)"></path><path d="M374.4696530030113 205.29295156078973C383.1392557247479 200.28845561346535 393.82074427525214 200.28845561346535 402.49034699698876 205.29435259548944L556.4696646326938 294.19420739548207C565.1392673544304 299.1987033428064 570.4800116296826 308.44973546491815 570.4800116296826 318.46012839426663V496.2598379942518C570.4800116296826 506.27023092360037 565.1392673544304 515.5212630457121 556.4696646326938 520.5271600277362L402.49034699698876 609.4270148277287C393.82074427525214 614.4315107750532 383.1392557247479 614.4315107750532 374.4696530030113 609.4256137930291L220.49033536730622 520.5257589930364C211.8207326455696 515.5212630457121 206.47998837031747 506.27023092360037 206.47998837031747 496.2598379942518V318.46012839426663C206.47998837031747 308.44973546491815 211.8207326455696 299.1987033428064 220.49033536730622 294.1928063607824L374.4696530030113 205.29295156078973Z " stroke-width="13.52" stroke="#238bea" fill="none" opacity="0.8415999999999999" transform="matrix(1.0910315874069387,1.025562954001133,0.02285385383729155,0.6589053621999944,-89.07620153229482,-161.93339013660113)"></path><path d="M376.2175727172308 208.8140082290858C384.6966347198084 203.91950120368062 395.14336528019163 203.91950120368062 403.62242728276925 208.81537847181409L554.217584091316 295.7613903091695C562.6966460938936 300.65589733457466 567.9200113740851 309.7036100693872 567.9200113740851 319.49399436292583V493.3860180376367C567.9200113740851 503.17640233117544 562.6966460938936 512.2241150659879 554.217584091316 517.1199923341214L403.62242728276925 604.0660041714768C395.14336528019163 608.960511196882 384.6966347198084 608.960511196882 376.2175727172308 604.0646339287484L225.6224159086841 517.118622091393C217.14335390610654 512.2241150659879 211.91998862591487 503.17640233117544 211.91998862591487 493.3860180376367V319.49399436292583C211.91998862591487 309.7036100693872 217.14335390610654 300.65589733457466 225.6224159086841 295.76002006644126L376.2175727172308 208.8140082290858Z " stroke-width="13.83" stroke="#218dec" fill="none" opacity="0.8613999999999999" transform="matrix(1.0872203096207897,1.0079108936164032,0.07221309328798814,0.7026054585202052,-99.94467341616252,-185.20441471775553)"></path><path d="M377.96549243145034 212.33503437980374C386.25401371486885 207.5505162763178 396.4659862851312 207.5505162763178 404.7545075685497 212.3363738305606L551.965503549938 297.32854270527884C560.2540248333565 302.11306080876477 565.3600111184877 310.9574541562782 565.3600111184877 320.52782981400696V490.5121675634434C565.3600111184877 500.0825432211723 560.2540248333565 508.9269365686855 551.965503549938 513.7127941229284L404.7545075685497 598.7049629976466C396.4659862851312 603.4894811011325 386.25401371486885 603.4894811011325 377.96549243145034 598.7036235468897L230.754496450062 513.7114546721715C222.46597516664343 508.9269365686855 217.35998888151227 500.0825432211723 217.35998888151227 490.5121675634434V320.52782981400696C217.35998888151227 310.9574541562782 222.46597516664343 302.11306080876477 230.754496450062 297.32720325452203L377.96549243145034 212.33503437980374Z " stroke-width="14.14" stroke="#1e8eef" fill="none" opacity="0.8812" transform="matrix(1.0811986839346597,0.9886579399087657,0.12127586378807648,0.7460899113682001,-110.32072872491631,-208.14957393969473)"></path><path d="M379.7134121456699 215.8560757893108C387.81139270992935 211.18154660774408 397.7886072900707 211.18154660774408 405.8865878543301 215.85738444809624L549.7134230085601 298.8957103601773C557.8114035728197 303.570239541744 562.8000108628903 312.2113135019582 562.8000108628903 321.56168052387716V487.63833234803917C562.8000108628903 496.9886993699582 557.8114035728197 505.62977333017227 549.7134230085601 510.30561117052446L405.8865878543301 593.3439370826055C397.7886072900707 598.0184662641722 387.81139270992935 598.0184662641722 379.7134121456699 593.3426284238201L235.88657699143988 510.30430251173914C227.78859642718038 505.62977333017227 222.79998913710972 496.9886993699582 222.79998913710972 487.63833234803917V321.56168052387716C222.79998913710972 312.2113135019582 227.78859642718038 303.570239541744 235.88657699143988 298.89440170139187L379.7134121456699 215.8560757893108Z " stroke-width="14.45" stroke="#1c8ff2" fill="none" opacity="0.9009999999999999" transform="matrix(1.0729854784477446,0.9677958386793305,0.16994420448030054,0.7893150257320394,-120.19191507254595,-230.71084074712502)"></path><path d="M381.46133185988936 219.37710194002875C389.36877170498985 214.81256168038124 399.11122829501016 214.81256168038124 407.01866814011066 219.37837980684276L547.4613424671822 300.4628627562866C555.3687823122827 305.0274030159341 560.2400106072929 313.4651575888492 560.2400106072929 322.59551597495823V484.7644818738459C560.2400106072929 493.89484025995506 555.3687823122827 502.33259483287003 547.4613424671822 506.89841295933155L407.01866814011066 587.9828959087754C399.11122829501016 592.5474361684228 389.36877170498985 592.5474361684228 381.46133185988936 587.9816180419614L241.0186575328177 506.89713509251754C233.11121768771733 502.33259483287003 228.23998939270712 493.89484025995506 228.23998939270712 484.7644818738459V322.59551597495823C228.23998939270712 313.4651575888492 233.11121768771733 305.0274030159341 241.0186575328177 300.4615848894726L381.46133185988936 219.37710194002875Z " stroke-width="14.76" stroke="#1990f5" fill="none" opacity="0.9208" transform="matrix(1.0626037583901662,0.9453169343747297,0.2181212263441473,0.8322367991061337,-129.54684281865804,-252.82886087570745)"></path><path d="M383.2092515741089 222.8981280907467C390.9261507000503 218.44357675301842 400.4338492999497 218.44357675301842 408.1507484258911 222.89937516558933L545.2092619258044 302.03001515239595C552.9261610517458 306.4845664901242 557.6800103516955 314.7190016757401 557.6800103516955 323.62935142603936V481.89063139965265C557.6800103516955 490.8009811499519 552.9261610517458 499.0354163355677 545.2092619258044 503.49121474813853L408.1507484258911 582.6218547349451C400.4338492999497 587.0764060726735 390.9261507000503 587.0764060726735 383.2092515741089 582.6206076601027L246.1507380741956 503.48996767329595C238.43383894825422 499.0354163355677 233.6799896483045 490.8009811499519 233.6799896483045 481.89063139965265V323.62935142603936C233.6799896483045 314.7190016757401 238.43383894825422 306.4845664901242 246.1507380741956 302.02876807755337L383.2092515741089 222.8981280907467Z " stroke-width="15.07" stroke="#1592f7" fill="none" opacity="0.9405999999999999" transform="matrix(1.0500808287485621,0.9212141446470249,0.26571129882630207,0.8748109281529955,-138.37511061765736,-274.4430437828275)"></path><path d="M384.9571712883285 226.4191695002537C392.4835296951108 222.07460708444464 401.7564703048892 222.07460708444464 409.2828287116715 226.4203857831249L542.9571813844265 303.5971828072943C550.4835397912088 307.9417452231034 555.1200100960981 315.9728610214201 555.1200100960981 324.6632021359095V479.01679618424834C555.1200100960981 487.7071372987377 550.4835397912088 495.7382530970545 542.9571813844265 500.0840317957346L409.2828287116715 577.260828819904C401.7564703048892 581.6053912357131 392.4835296951108 581.6053912357131 384.9571712883285 577.2596125370328L251.2828186155735 500.0828155128634C243.75646020879117 495.7382530970545 239.11998990390197 487.7071372987377 239.11998990390197 479.01679618424834V324.6632021359095C239.11998990390197 315.9728610214201 243.75646020879117 307.9417452231034 251.2828186155735 303.59596652442315L384.9571712883285 226.4191695002537Z " stroke-width="15.379999999999999" stroke="#1193fa" fill="none" opacity="0.9603999999999999" transform="matrix(1.0354481688615378,0.8954809323850854,0.31262023353795493,0.91699281385892,-146.66726760369068,-295.49165058414593)"></path><path d="M386.705091002548 229.9401956509717C394.0409086901713 225.70562215708185 403.0790913098287 225.70562215708185 410.414908997452 229.9413811418715L540.7051008430485 305.1643352034037C548.0409185306719 309.39890869729356 552.5600098405007 317.22670510831114 552.5600098405007 325.69703758699063V476.14294571005513C552.5600098405007 484.61327818873457 548.0409185306719 492.4410745997522 540.7051008430485 496.6768335845417L410.414908997452 571.899787646074C403.0790913098287 576.1343611399639 394.0409086901713 576.1343611399639 386.705091002548 571.8986021551743L256.4148991569514 496.6756480936421C249.07908146932812 492.4410745997522 244.55999015949936 484.61327818873457 244.55999015949936 476.14294571005513V325.69703758699063C244.55999015949936 317.22670510831114 249.07908146932812 309.39890869729356 256.4148991569514 305.163149712504L386.705091002548 229.9401956509717Z " stroke-width="15.69" stroke="#0c94fc" fill="none" opacity="0.9802" transform="matrix(1.0187413591297614,0.8681112750557913,0.35875546467638186,0.9587375650348076,-154.41488747673162,-315.9118552214684)"></path><path d="M388.4530107167675 233.46125231926777C395.59828768523175 229.33666774729716 404.40171231476825 229.33666774729716 411.5469892832325 233.46240701819613L538.4530203016707 306.7315181170911C545.5982972701349 310.8561026890618 550.0000095849032 318.48057971278024 550.0000095849032 326.7309035556499V473.2691257534399C550.0000095849032 481.5194495963096 545.5982972701349 489.14392662002797 538.4530203016707 493.26966589092694L411.5469892832325 566.538776989822C404.40171231476825 570.6633615617925 395.59828768523175 570.6633615617925 388.4530107167675 566.5376222908938L261.54697969832927 493.26851119199864C254.401702729865 489.14392662002797 249.99999041509682 481.5194495963096 249.99999041509682 473.2691257534399V326.7309035556499C249.99999041509682 318.48057971278024 254.401702729865 310.8561026890618 261.54697969832927 306.7303634181629L388.4530107167675 233.46125231926777Z " stroke-width="16" stroke="#0095ff" fill="none" opacity="0.9999999999999999" transform="matrix(1,0.8390996311772799,0.4040262258351568,1,-161.6104964990136,-335.6398396672678)"></path></g></svg>