<svg width="2283" height="2117" viewBox="0 0 2283 2117" fill="none" xmlns="http://www.w3.org/2000/svg">
<path opacity="0.7" d="M2159 1207C2159 1709.58 1750.68 2117 1247 2117C743.316 2117 335 1709.58 335 1207C335 704.421 743.316 297 1247 297C1750.68 297 2159 704.421 2159 1207ZM517.4 1207C517.4 1609.06 844.053 1935 1247 1935C1649.95 1935 1976.6 1609.06 1976.6 1207C1976.6 804.937 1649.95 479 1247 479C844.053 479 517.4 804.937 517.4 1207Z" fill="#AAA489"/>
<path opacity="0.7" d="M1094.5 735.5C852.327 1154.96 315.963 1298.68 -103.5 1056.5C-522.963 814.327 -666.681 277.963 -424.504 -141.5C-182.327 -560.963 354.037 -704.681 773.5 -462.504C1192.96 -220.327 1336.68 316.037 1094.5 735.5ZM-196.653 -9.94999C-366.177 283.674 -265.574 659.129 28.05 828.653C321.674 998.177 697.129 897.574 866.653 603.95C1036.18 310.326 935.574 -65.1292 641.95 -234.653C348.326 -404.177 -27.1292 -303.574 -196.653 -9.94999Z" fill="#AAA489"/>
</svg>
