<svg width="2106" height="2016" viewBox="0 0 2106 2016" fill="none" xmlns="http://www.w3.org/2000/svg">
<path opacity="0.7" d="M2702 1788C2702 2290.58 2293.68 2698 1790 2698C1286.32 2698 878 2290.58 878 1788C878 1285.42 1286.32 878 1790 878C2293.68 878 2702 1285.42 2702 1788ZM1060.4 1788C1060.4 2190.06 1387.05 2516 1790 2516C2192.95 2516 2519.6 2190.06 2519.6 1788C2519.6 1385.94 2192.95 1060 1790 1060C1387.05 1060 1060.4 1385.94 1060.4 1788Z" fill="#AAA489"/>
<path opacity="0.7" d="M1637.5 1316.5C1395.33 1735.96 858.963 1879.68 439.5 1637.5C20.0374 1395.33 -123.681 858.963 118.496 439.5C360.673 20.0374 897.037 -123.681 1316.5 118.496C1735.96 360.673 1879.68 897.037 1637.5 1316.5ZM346.347 571.05C176.823 864.674 277.426 1240.13 571.05 1409.65C864.674 1579.18 1240.13 1478.57 1409.65 1184.95C1579.18 891.326 1478.57 515.871 1184.95 346.347C891.326 176.823 515.871 277.426 346.347 571.05Z" fill="#AAA489"/>
</svg>
